<svg width="48" height="48" viewBox="0 0 48 48" fill="none" xmlns="http://www.w3.org/2000/svg">
<rect width="48" height="48" rx="8" fill="#00B068" fill-opacity="0.1"/>
<path d="M24.7778 27.0004L21 23.2227" stroke="#00B068" stroke-width="2" stroke-linecap="round" stroke-linejoin="round"/>
<path d="M14 33.9992C16 33.9992 18.608 34.3409 19.9748 32.9741C21.3417 31.6072 21.3417 29.3912 19.9748 28.0243C18.608 26.6575 16.3919 26.6575 15.0251 28.0243C13.6583 29.3912 15.0251 31.9992 14 33.9992Z" stroke="#00B068" stroke-width="2" stroke-linecap="round" stroke-linejoin="round"/>
<path d="M19.9999 27.9992C19.5085 27.5078 19.2628 27.2621 19.1239 27.0048C18.7908 26.3877 18.8051 25.6413 19.1617 25.0376C19.3104 24.7858 19.5654 24.5497 20.0753 24.0775L29.9434 14.9404C30.8126 14.1357 32.1624 14.1616 32.9999 14.9992C33.8375 15.8368 33.8635 17.1866 33.0587 18.0557L23.9216 27.9238C23.4494 28.4337 23.2134 28.6887 22.9616 28.8374C22.3578 29.194 21.6114 29.2083 20.9944 28.8752C20.7371 28.7363 20.4914 28.4906 19.9999 27.9992Z" stroke="#00B068" stroke-width="2" stroke-linecap="round" stroke-linejoin="round"/>
</svg>
